PathFileType	4	(X/Y/Z)	C:\Users\86182\Documents\cortex\Trimmed_M3_H12.trc
DataRate	CameraRate	NumFrames	NumMarkers	Units	OrigDataRate	OrigDataStartFrame	OrigNumFrames
100.00	100.00	       98	2	mm	100.00	511	       851
Frame#	Time	gripper			box			
		X1	Y1	Z1	X2	Y2	Z2	

511	5.100	267.82791	173.04390	292.25168	271.82211	167.76129	153.68349	
512	5.110	267.82721	173.04524	292.24814	272.66165	167.28522	153.20444	
513	5.120	267.82645	173.04678	292.24402	273.34155	166.90092	152.81502	
514	5.130	267.82568	173.04823	292.24005	273.82285	166.63016	152.53786	
515	5.140	267.82513	173.04926	292.23721	274.10898	166.47014	152.37202	
516	5.150	267.82480	173.04951	292.23630	274.21918	166.40883	152.30775	
517	5.160	267.82471	173.04889	292.23755	274.17105	166.43570	152.33575	
518	5.170	267.82474	173.04758	292.24048	273.97287	166.54619	152.45105	
519	5.180	267.82483	173.04594	292.24426	273.62674	166.73997	152.65149	
520	5.190	267.82501	173.04442	292.24780	273.14035	167.01370	152.93153	
521	5.200	267.82532	173.04330	292.25034	272.54669	167.34924	153.27159	
522	5.210	267.82578	173.04276	292.25146	271.90842	167.71118	153.63586	
523	5.220	267.82635	173.04271	292.25128	271.28244	168.06700	153.99205	
524	5.230	267.82703	173.04305	292.25018	270.70883	168.39381	154.31755	
525	5.240	267.82779	173.04355	292.24884	270.26453	168.64749	154.56906	
526	5.250	267.82861	173.04407	292.24780	270.06989	168.75891	154.67886	
527	5.260	267.82956	173.04451	292.24738	270.20096	168.68430	154.60440	
528	5.270	267.83060	173.04477	292.24774	270.63272	168.43773	154.36012	
529	5.280	267.83160	173.04482	292.24890	271.27625	168.06993	153.99657	
530	5.290	267.83237	173.04465	292.25055	272.02283	167.64310	153.57523	
531	5.300	267.83252	173.04442	292.25201	272.75604	167.22417	153.16150	
532	5.310	267.83194	173.04427	292.25272	273.38065	166.86806	152.80859	
533	5.320	267.83081	173.04430	292.25262	273.85217	166.60042	152.54124	
534	5.330	267.82944	173.04451	292.25195	274.16733	166.42284	152.36127	
535	5.340	267.82803	173.04478	292.25110	274.33902	166.32718	152.26178	
536	5.350	267.82675	173.04492	292.25043	274.37817	166.30638	152.23734	
537	5.360	267.82571	173.04478	292.25018	274.28262	166.36134	152.28981	
538	5.370	267.82510	173.04431	292.25049	274.03467	166.50232	152.42952	
539	5.380	267.82489	173.04362	292.25131	273.60709	166.74532	152.67169	
540	5.390	267.82501	173.04282	292.25275	272.97784	167.10330	153.02853	
541	5.400	267.82544	173.04202	292.25479	272.15369	167.57256	153.49609	
542	5.410	267.82605	173.04128	292.25720	271.20297	168.11409	154.03566	
543	5.420	267.82678	173.04063	292.25970	270.27496	168.64273	154.56253	
544	5.430	267.82755	173.04012	292.26196	269.55972	169.05005	154.96887	
545	5.440	267.82828	173.03975	292.26376	269.20236	169.25334	155.17239	
546	5.450	267.82874	173.03949	292.26508	269.25009	169.22562	155.14627	
547	5.460	267.82880	173.03932	292.26587	269.64813	168.99815	154.92159	
548	5.470	267.82831	173.03920	292.26608	270.26041	168.64854	154.57541	
549	5.480	267.82745	173.03906	292.26599	270.91736	168.27362	154.20370	
550	5.490	267.82657	173.03891	292.26584	271.45349	167.96812	153.89981	
551	5.500	267.82587	173.03877	292.26569	271.72058	167.81703	153.74707	
552	5.510	267.82556	173.03868	292.26556	271.62875	167.87199	153.79604	
553	5.520	267.82571	173.03876	292.26526	271.19952	168.12068	154.03470	
554	5.530	267.82626	173.03905	292.26447	270.56982	168.48454	154.38614	
555	5.540	267.82718	173.03960	292.26303	269.92395	168.85789	154.74672	
556	5.550	267.82837	173.04030	292.26117	269.39151	169.16621	155.04352	
557	5.560	267.82968	173.04097	292.25940	268.99121	169.39844	155.26628	
558	5.570	267.83084	173.04143	292.25824	268.65762	169.59148	155.45218	
559	5.580	267.83160	173.04155	292.25809	268.32840	169.78087	155.63669	
560	5.590	267.83194	173.04129	292.25928	268.00626	169.96486	155.81845	
561	5.600	267.83218	173.04070	292.26175	267.73367	170.11902	155.97366	
562	5.610	267.83270	173.03992	292.26508	267.54385	170.22435	156.08354	
563	5.620	267.83368	173.03911	292.26874	267.45215	170.27258	156.13899	
564	5.630	267.83499	173.03831	292.27240	267.46582	170.26033	156.13513	
565	5.640	267.83609	173.03761	292.27563	267.58917	170.18599	156.06865	
566	5.650	267.83643	173.03702	292.27795	267.82315	170.04980	155.93828	
567	5.660	267.83566	173.03662	292.27893	268.15884	169.85736	155.74843	
568	5.670	267.83398	173.03650	292.27841	268.56625	169.62602	155.51598	
569	5.680	267.83191	173.03665	292.27652	268.97742	169.39423	155.27974	
570	5.690	267.83002	173.03705	292.27374	269.28845	169.22058	155.09938	
571	5.700	267.82883	173.03752	292.27094	269.40454	169.15823	155.02957	
572	5.710	267.82874	173.03796	292.26889	269.29019	169.22667	155.09134	
573	5.720	267.82983	173.03822	292.26828	268.98450	169.40308	155.26299	
574	5.730	267.83194	173.03824	292.26935	268.58383	169.63240	155.48988	
575	5.740	267.83453	173.03802	292.27167	268.19077	169.85626	155.71353	
576	5.750	267.83704	173.03770	292.27438	267.86798	170.03944	155.89772	
577	5.760	267.83890	173.03741	292.27667	267.63605	170.17107	156.02985	
578	5.770	267.83966	173.03726	292.27786	267.49036	170.25450	156.11168	
579	5.780	267.83914	173.03726	292.27777	267.41434	170.29944	156.15240	
580	5.790	267.83746	173.03741	292.27643	267.38800	170.31685	156.16377	
581	5.800	267.83505	173.03770	292.27423	267.39273	170.31667	156.15709	
582	5.810	267.83243	173.03806	292.27194	267.41339	170.30696	156.14160	
583	5.820	267.83002	173.03838	292.27017	267.43909	170.29372	156.12398	
584	5.830	267.82813	173.03859	292.26947	267.46326	170.28065	156.10815	
585	5.840	267.82675	173.03865	292.26996	267.48282	170.26974	156.09590	
586	5.850	267.82590	173.03859	292.27136	267.49683	170.26187	156.08752	
587	5.860	267.82532	173.03845	292.27307	267.50543	170.25722	156.08263	
588	5.870	267.82489	173.03828	292.27423	267.50961	170.25536	156.08037	
589	5.880	267.82440	173.03815	292.27423	267.51068	170.25554	156.07980	
590	5.890	267.82394	173.03809	292.27307	267.50977	170.25690	156.08012	
591	5.900	267.82361	173.03813	292.27112	267.50790	170.25862	156.08078	
592	5.910	267.82339	173.03827	292.26892	267.50592	170.25996	156.08142	
593	5.920	267.82330	173.03841	292.26706	267.50461	170.26028	156.08180	
594	5.930	267.82336	173.03848	292.26587	267.50461	170.25925	156.08174	
595	5.940	267.82355	173.03845	292.26547	267.50604	170.25699	156.08125	
596	5.950	267.82388	173.03833	292.26584	267.50842	170.25398	156.08052	
597	5.960	267.82446	173.03812	292.26678	267.51114	170.25079	156.07985	
598	5.970	267.82526	173.03787	292.26807	267.51361	170.24788	156.07942	
599	5.980	267.82635	173.03763	292.26953	267.51538	170.24568	156.07933	
600	5.990	267.82770	173.03745	292.27081	267.51608	170.24458	156.07959	
601	6.000	267.82910	173.03743	292.27164	267.51566	170.24467	156.08014	
602	6.010	267.83026	173.03757	292.27176	267.51422	170.24585	156.08086	
603	6.020	267.83090	173.03787	292.27106	267.51227	170.24776	156.08154	
604	6.030	267.83099	173.03828	292.26965	267.51010	170.25015	156.08206	
605	6.040	267.83084	173.03877	292.26788	267.50793	170.25291	156.08241	
606	6.050	267.83081	173.03923	292.26633	267.50577	170.25586	156.08275	
607	6.060	267.83105	173.03957	292.26532	267.50363	170.25876	156.08318	
608	6.070	267.83154	173.03976	292.26498	267.50165	170.26141	156.08365	
